<svg width="1104" height="678" viewBox="0 0 1104 678" fill="none" xmlns="http://www.w3.org/2000/svg">
<path d="M540.65 89C537.85 91.1333 525.85 100.733 514.117 110.333C502.383 119.933 485.85 133.4 477.317 140.333C461.45 153.133 459.583 155.4 461.05 159.133C461.583 160.733 462.917 161.133 466.517 160.467C469.183 160.067 471.583 159.133 472.117 158.333C472.517 157.533 474.917 156.467 477.183 155.8C481.05 154.6 481.45 154.867 481.583 157.4C481.717 159 481.85 173.533 481.85 189.667C482.117 214.2 482.517 219.667 484.383 223C489.317 232.2 498.517 237.267 508.517 236.733L515.45 236.333L516.117 207.667C516.783 177 517.45 173.933 524.65 166.2C531.183 159.133 536.783 156.733 546.65 156.733C554.383 156.6 556.917 157.267 561.983 160.2C572.783 166.467 577.45 175.133 578.117 189.667C578.383 194.733 578.65 207.533 578.65 217.933L578.783 237H585.85C594.783 236.867 602.783 233.267 607.583 226.867L611.45 221.933L611.85 189.133C612.117 171.133 612.783 155.933 613.317 155.267C613.85 154.733 616.783 156.067 619.85 158.333C622.917 160.467 626.917 162.333 628.783 162.333C632.917 162.333 635.45 158.067 633.317 154.733C632.517 153.4 617.45 140.6 599.983 126.333C556.117 90.6 549.05 85 547.317 85C546.517 85 543.45 86.7333 540.65 89Z" fill="#067EE6"/>
<path d="M537.45 178.733C534.117 182.867 534.117 183.4 533.717 209.933C533.317 237 533.45 237.667 537.583 237.267C538.117 237.133 543.317 237 549.45 236.867C555.45 236.733 559.717 236.2 558.917 235.667C557.717 235 557.717 233.8 558.783 231.133C559.45 229.133 560.117 217.8 560.117 205.933C560.117 181.667 559.583 179.8 551.183 176.333C544.25 173.4 541.183 173.933 537.45 178.733Z" fill="#067EE6"/>
<path d="M480.65 261.4C474.783 265.267 470.25 269.267 470.383 270.067C470.65 271 470.783 285.4 470.783 302.2C470.917 323.933 471.317 333.267 472.517 334.733C473.45 335.8 477.45 339 481.45 341.8L488.783 347L543.05 347.267L597.317 347.667L601.05 343.8C603.183 341.8 606.383 339.667 608.117 339.133C611.317 338.333 611.183 338.333 607.85 340.333C602.65 343.267 603.183 344.067 608.783 341.4C611.317 340.2 613.05 338.733 612.783 338.2C612.25 337.4 617.717 333 619.45 332.867C619.717 332.867 622.117 332.067 624.65 331C627.05 329.933 629.45 329.533 629.983 329.933C630.383 330.467 630.783 330.067 630.783 329.267C630.783 328.467 631.717 328.067 633.05 328.6C634.65 329.267 634.917 329 634.117 327.667C633.45 326.6 633.583 326.2 634.517 326.733C636.517 328.067 640.25 326.333 639.183 324.6C638.783 323.8 639.05 323.667 639.85 324.2C641.717 325.267 654.783 318.867 654.783 316.867C654.783 316.2 655.317 315.8 655.85 316.2C656.517 316.6 658.65 315.4 660.783 313.533C662.783 311.8 664.917 310.333 665.583 310.333C668.117 310.333 672.517 299.933 672.65 293.533C672.783 288.067 672.117 285.933 668.917 281.8C661.317 271.667 649.983 270.6 636.25 278.733C632.117 281.267 626.383 284.467 623.45 286.067C620.517 287.533 610.917 292.733 602.117 297.533L586.117 306.333H564.117C538.917 306.333 536.117 305.533 536.117 297.8C536.117 289.8 538.517 288.867 561.85 288.6C585.183 288.333 587.85 287.4 592.517 277.933C595.45 272.2 594.783 267 590.517 261.533C585.183 254.733 582.65 254.467 535.183 254.333H491.183L480.65 261.4Z" fill="#067EE6"/>
<path d="M422.917 303C423.183 323.933 423.45 341 423.717 341C426.917 341 439.583 337.533 444.117 335.4C447.45 333.933 451.583 331.933 453.45 331.133L456.783 329.533L456.917 301C457.05 281.667 456.65 271.667 455.583 270.333C454.783 269.133 451.983 268.067 449.45 267.933C446.917 267.667 441.183 267 436.783 266.2C432.383 265.533 427.45 265 425.717 265H422.65L422.917 303Z" fill="#067EE6"/>
<path d="M278.517 377.667C268.383 381 267.45 383.4 267.45 406.333C267.45 428.6 268.517 431.533 277.05 434.6C284.25 437.133 303.717 436.733 308.917 434.067C316.517 429.933 316.783 429.133 316.783 406.333C316.783 383.667 316.517 382.6 309.05 378.733C303.317 375.8 286.25 375.267 278.517 377.667ZM298.117 406.333V420.333H292.117H286.117L285.717 407.8C285.583 400.867 285.717 394.333 286.117 393.4C286.517 392.067 288.517 391.667 292.383 391.933L298.117 392.333V406.333Z" fill="black"/>
<path d="M199.45 379.933C199.05 381.667 198.917 394.733 199.05 409L199.45 435L207.583 435.4L215.717 435.8L216.383 424.333C216.783 418.067 217.583 412.467 217.983 411.933C218.517 411.533 220.117 411.8 221.45 412.733C226.917 416.067 232.65 414.467 235.85 408.467L238.117 404.333L238.783 419.667L239.45 435L247.85 435.4L256.117 435.8L255.85 406.733L255.45 377.667H246.783H238.117L233.583 385.933C231.05 390.6 228.517 394.333 227.85 394.333C227.317 394.333 224.65 390.467 221.85 385.667L216.917 377H208.517C200.917 377 200.117 377.267 199.45 379.933Z" fill="black"/>
<path d="M328.65 378.733C328.383 379.667 328.25 392.733 328.383 407.667L328.783 435L337.183 435.4L345.45 435.8V425V414.2L352.517 414.6L359.45 415L360.117 425L360.783 435L369.183 435.4L377.45 435.8V420.733C377.45 404.467 375.85 399.667 370.65 399.667C367.317 399.667 367.45 399 372.117 388.6C374.383 383.667 376.117 379.133 376.117 378.333C376.117 377.533 372.65 377 368.117 377C359.183 377 358.917 377.133 353.317 390.6C351.183 395.8 349.317 398.333 347.85 398.333C345.717 398.333 345.45 397 345.45 387.667V377H337.45C332.117 377 329.183 377.533 328.65 378.733Z" fill="black"/>
<path d="M396.517 378.467C394.117 379.133 391.183 381.133 390.117 382.733C385.183 390.333 386.65 407.4 392.517 410.6C394.117 411.533 399.317 412.867 404.117 413.667C411.317 414.867 412.783 415.533 412.783 417.8C412.783 420.067 411.583 420.333 400.783 420.733C388.117 421.133 386.783 421.8 386.783 427.933C386.783 435.533 387.183 435.667 403.583 435.667C420.783 435.667 428.117 433.667 430.65 428.2C431.45 426.333 432.117 420.867 432.117 415.8C432.117 403.933 429.717 401.4 415.983 399.133C408.783 397.933 405.983 396.867 405.717 395.267C405.183 392.6 408.25 391.8 420.117 391.4L428.783 391V384.333V377.667L414.783 377.4C407.05 377.267 398.783 377.8 396.517 378.467Z" fill="black"/>
<path d="M442.117 378.6C441.717 379.667 441.583 392.733 441.717 407.667L442.117 435L449.983 435.4C455.45 435.667 458.25 435.267 458.917 434.067C459.583 433.133 460.117 428.333 460.117 423.267V414.333H466.783H473.317L473.717 424.6L474.117 435L482.383 435.4C490.117 435.8 490.783 435.533 491.45 432.733C491.85 431 491.983 417.933 491.85 403.667L491.45 377.667H482.783H474.117L473.717 387.933L473.317 398.333H466.783H460.25L459.85 387.933L459.45 377.667L451.05 377.267C445.05 377 442.517 377.4 442.117 378.6Z" fill="black"/>
<path d="M521.983 378.733C521.717 379.667 521.583 392.733 521.717 407.667L522.117 435L529.983 435.4C539.45 435.933 540.117 435.133 540.117 424.733V417.133L547.85 416.733L555.45 416.333V409V401.667L547.85 401.267L540.117 400.867V396.333V391.667H551.45H562.783V384.333V377H542.783C527.717 377 522.517 377.4 521.983 378.733Z" fill="black"/>
<path d="M572.783 378.733C572.383 379.667 572.25 392.733 572.383 407.667L572.783 435H593.45H614.117L614.517 428.067L614.917 421.133L602.517 420.733L590.117 420.333L589.717 416.6L589.317 413H598.65H608.117V406.467C608.117 398.867 607.317 398.333 596.65 398.333C589.85 398.333 589.45 398.2 589.45 395C589.45 391.667 589.45 391.667 602.25 391.667H614.917L614.517 384.6L614.117 377.667L593.717 377.267C577.983 377 573.183 377.267 572.783 378.733Z" fill="black"/>
<path d="M625.983 378.733C625.717 379.667 625.583 392.733 625.717 407.667L626.117 435H634.117H642.117L642.783 420.467L643.45 406.067L650.383 414.6C655.983 421.533 657.317 424.2 657.717 429L658.117 435H666.117H674.117V406.333V377.667H666.117H658.117L657.45 387.533L656.783 397.4L647.717 387.267C638.917 377.4 638.383 377 632.65 377C629.05 377 626.383 377.667 625.983 378.733Z" fill="black"/>
<path d="M695.183 377.933C693.583 378.2 690.783 379.933 688.917 381.667C685.85 384.6 685.45 385.8 685.45 394.867C685.45 400.333 685.85 405.8 686.25 407C687.45 410.2 693.583 412.867 701.983 413.8C709.45 414.733 713.183 417 711.45 419.667C711.05 420.467 705.317 421 697.983 421H685.45V428.333V435.667H700.783C718.25 435.667 726.117 433.533 728.25 428.067C728.917 426.333 729.45 420.733 729.45 415.8C729.45 404.467 727.317 401.8 716.517 399.667C703.317 397.133 702.783 397 702.783 395.133C702.783 392.467 705.85 391.667 716.917 391.667H726.917L726.517 384.6L726.117 377.667L712.117 377.533C704.383 377.4 696.783 377.533 695.183 377.933Z" fill="black"/>
<path d="M735.717 377.933C735.183 378.333 734.783 381.667 734.783 385.133C734.783 392.2 735.85 393 744.25 393H749.317L749.717 413.933L750.117 435L759.183 435.4L768.117 435.8V414.467V393.133L775.183 392.733L782.117 392.333L782.517 384.6L782.917 377H759.717C747.05 377 736.117 377.4 735.717 377.933Z" fill="black"/>
<path d="M792.383 405.933L792.783 435H813.45H834.117L834.517 427.933L834.917 421H822.25H809.45V417V413H818.783H828.117V406.467C828.117 398.867 827.317 398.333 816.65 398.333C809.85 398.333 809.45 398.2 809.45 395C809.45 391.667 809.45 391.667 822.25 391.667H834.917L834.517 384.6L834.117 377.667L813.05 377.267L792.117 376.867L792.383 405.933Z" fill="black"/>
<path d="M845.45 406.333V435.8L853.85 435.4L862.117 435L862.517 425.933L862.917 417H870.117H877.317L877.717 425.933L878.117 435L886.383 435.4C894.383 435.8 894.783 435.667 895.583 432.333C895.983 430.467 896.117 424.733 895.85 419.4C895.45 410.867 894.917 409.667 891.317 406.467C887.583 403.267 887.45 402.733 889.05 399.667C893.05 392.067 889.717 381 882.783 378.467C880.383 377.667 870.917 377 861.983 377H845.45V406.333ZM872.65 395.133C873.85 399.533 871.45 402.333 866.65 402.333C863.05 402.333 862.783 401.933 862.783 397C862.783 391.8 862.917 391.667 867.317 391.667C871.05 391.667 871.983 392.2 872.65 395.133Z" fill="black"/>
<path d="M210.117 457.933C205.983 458.867 204.117 462.333 204.117 469.267C204.117 474.467 204.65 475.933 207.317 477.667C210.917 480.067 217.583 479.933 218.383 477.4C218.783 476.467 217.183 475.667 214.517 475.4C210.783 475.133 209.983 474.333 209.45 471C208.25 464.6 209.317 462.467 214.25 461.533C219.05 460.6 220.117 459.133 216.65 457.8C214.383 457 214.25 457 210.117 457.933Z" fill="#067EE6"/>
<path d="M227.717 459C224.25 462.333 224.517 476.467 227.983 478.333C231.983 480.467 238.117 479.933 240.517 477.267C242.917 474.6 243.583 463.133 241.583 459.933C239.717 457 230.25 456.333 227.717 459ZM237.45 465C238.783 470.067 237.05 475 233.85 475.4C231.05 475.8 229.45 472.867 229.45 466.867C229.45 460.733 235.983 459.133 237.45 465Z" fill="#067EE6"/>
<path d="M278.783 458.333C276.25 458.867 275.317 460.067 275.05 463.533C274.517 468.467 276.25 470.333 281.183 470.333C283.183 470.333 284.117 471.133 284.117 472.867C284.117 474.867 283.05 475.667 279.85 475.933C274.783 476.333 273.983 478.733 278.65 479.4C290.25 481.133 294.917 469.933 283.983 466.067C279.05 464.333 279.05 462.467 284.117 461.4C287.717 460.733 289.717 458.467 287.183 458.2C286.517 458.2 285.183 457.933 284.117 457.8C283.05 457.533 280.65 457.8 278.783 458.333Z" fill="#067EE6"/>
<path d="M298.517 457.8C295.583 458.733 295.45 460.467 298.117 461.933C299.183 462.6 300.383 465.933 300.917 469.667C301.983 479.133 302.517 480.2 304.517 478.467C305.583 477.667 306.383 473.933 306.65 470.067C306.917 463.667 307.717 461.933 311.45 460.6C315.317 459 303.05 456.467 298.517 457.8Z" fill="#067EE6"/>
<path d="M318.917 458.867C317.983 460.067 317.45 464.067 317.717 469.267C317.983 475.8 318.65 477.667 320.383 478.067C321.85 478.333 322.783 477.4 323.05 475.4C323.717 470.733 329.583 471.133 331.85 476.067C334.25 481 336.65 479.267 335.583 473.133C335.05 470.467 334.383 466.2 333.983 463.533C333.317 459.4 332.517 458.467 329.183 457.8C323.05 456.6 320.65 456.867 318.917 458.867ZM327.983 462.2C330.25 463.667 328.917 467.667 326.25 467.667C324.25 467.667 322.383 464.067 323.583 462.2C324.517 460.733 325.583 460.733 327.983 462.2Z" fill="#067EE6"/>
<path d="M372.383 457.933C367.183 459 364.65 471 368.517 476.2C370.65 479.133 380.117 479.933 381.05 477.267C381.45 476.333 380.517 475.667 378.517 475.667C373.983 475.667 372.117 473.267 372.117 467.4C372.117 462.733 372.383 462.333 376.783 461.533C379.317 461.133 381.45 460.2 381.45 459.667C381.45 458.6 377.85 456.867 376.383 457.133C375.85 457.267 374.117 457.667 372.383 457.933Z" fill="#067EE6"/>
<path d="M390.117 458.2L386.117 459.267L389.85 461C393.05 462.6 393.45 463.533 393.45 469.533C393.45 476.333 395.183 481.133 396.917 479.4C397.317 478.867 398.117 475 398.383 470.733C398.783 466.467 399.45 462.867 399.983 462.6C400.383 462.467 401.717 461.667 402.783 461C404.517 459.8 404.517 459.533 402.783 458.333C400.517 456.867 396.117 456.867 390.117 458.2Z" fill="#067EE6"/>
<path d="M413.183 457.933C410.25 458.6 410.117 460.867 412.783 461.8C415.45 462.867 415.45 471.4 412.65 474.467C409.717 477.8 411.45 479.667 417.317 479.667C423.45 479.667 424.783 478.6 422.117 475.667C419.05 472.333 419.05 463.667 422.117 461.533C423.45 460.467 424.25 459.4 423.85 459C422.783 457.933 415.983 457.267 413.183 457.933Z" fill="#067EE6"/>
<path d="M457.05 459.933C455.85 461.933 455.45 465.4 455.85 470.067C456.25 476.2 456.783 477.4 459.85 478.467C461.717 479.267 465.183 479.667 467.317 479.4C471.05 479 471.45 478.467 471.85 473.933C472.383 468.067 468.917 466.867 467.583 472.333C465.85 479 459.583 474.867 460.383 467.533C460.783 463.8 461.45 463 465.183 462.067C470.917 460.6 469.983 457.8 463.717 457.267C459.85 456.867 458.517 457.4 457.05 459.933Z" fill="#067EE6"/>
<path d="M489.183 458.467C487.317 459.533 486.783 461.533 486.783 467.667C486.783 471.933 487.183 476.333 487.583 477.533C488.517 479.933 495.317 480.333 500.65 478.333C503.85 477.133 504.117 476.467 504.117 468.467C504.117 463.667 503.583 459.533 502.917 459.133C500.517 457.667 491.317 457.267 489.183 458.467ZM497.983 461.8C500.517 462.733 500.917 471.667 498.517 474.067C496.117 476.467 492.117 476.067 491.983 473.267C491.583 467.8 492.517 462.867 493.983 462.067C495.85 460.867 495.45 460.867 497.983 461.8Z" fill="#067EE6"/>
<path d="M514.65 457.933C513.317 458.2 512.117 459.667 511.717 461.133C510.517 465.667 511.45 476.867 513.183 478.6C514.65 480.067 514.917 479.8 516.917 473.267C517.85 470.2 523.317 472.067 525.183 476.067C526.517 478.867 527.45 479.4 528.65 478.333C530.383 477 529.983 470.867 527.983 468.2C527.45 467.533 527.183 465.667 527.583 464.067C528.917 459.267 521.85 455.933 514.65 457.933ZM522.117 464.333C522.117 465.8 521.05 467.133 519.85 467.4C517.983 467.8 517.45 467 517.45 464.333C517.45 461.667 517.983 460.867 519.85 461.267C521.05 461.533 522.117 462.867 522.117 464.333Z" fill="#067EE6"/>
<path d="M540.517 457.933L536.117 458.467V467.533C536.117 478.2 537.45 480.067 545.05 479.4C551.05 478.867 551.583 476.6 545.983 475.667C541.317 474.867 540.783 471.533 545.183 469.667C549.183 467.933 548.917 466.333 544.65 466.333C539.317 466.333 540.917 461.8 546.517 461.267C548.917 461 550.783 460.2 550.517 459.4C549.85 457.667 546.65 457.267 540.517 457.933Z" fill="#067EE6"/>
<path d="M563.983 457.933C561.317 458.6 558.917 463.667 557.85 471C556.917 477.8 559.45 480.467 562.517 475.933C565.05 471.933 569.183 472.2 570.783 476.333C572.383 480.6 576.117 479.4 576.117 474.467C576.117 469.933 572.25 458.333 570.783 458.333C570.117 458.333 568.917 458.067 567.85 457.8C566.917 457.533 565.183 457.533 563.983 457.933ZM569.45 465.667C569.45 468.067 568.783 469 566.917 469C565.45 469 564.117 468.2 563.717 467.267C562.783 464.6 564.25 462.333 566.917 462.333C568.783 462.333 569.45 463.267 569.45 465.667Z" fill="#067EE6"/>
<path d="M614.783 458.2C612.117 459 611.45 459.933 611.45 463.667C611.45 467.667 611.983 468.333 615.85 469.533C618.65 470.333 620.117 471.533 620.117 473.133C620.117 474.867 618.917 475.667 615.85 475.933C610.783 476.333 609.983 478.733 614.65 479.4C626.25 481.133 630.917 469.933 619.983 466.067C615.05 464.333 615.05 462.467 620.117 461.4C624.517 460.6 625.317 459.133 621.983 457.8C619.583 456.867 619.45 456.867 614.783 458.2Z" fill="#067EE6"/>
<path d="M642.517 457.933C639.583 458.733 639.45 460.867 642.117 461.8C645.05 463 644.917 473.8 641.983 475.4C638.517 477.4 641.05 479.667 646.783 479.667C652.517 479.667 655.05 477.4 651.583 475.4C648.517 473.667 648.65 463.933 651.717 461.533C653.05 460.6 653.717 459.533 653.183 459C652.117 457.8 645.317 457.133 642.517 457.933Z" fill="#067EE6"/>
<path d="M685.983 458.467C685.583 459.267 686.117 460.6 687.183 461.4C688.25 462.333 689.45 466.333 689.85 470.867C690.25 475.133 690.917 478.867 691.317 479.267C693.183 481.133 694.783 477.4 694.783 470.867C694.783 464.467 695.183 463.4 698.117 462.067C701.983 460.333 702.517 458.467 699.183 458.2C697.85 458.067 694.517 457.8 691.85 457.533C689.05 457.267 686.517 457.667 685.983 458.467Z" fill="#067EE6"/>
<path d="M710.783 458.2C707.717 459 707.45 459.8 707.05 467.667C706.65 477.267 708.25 479.667 715.183 479.667C722.383 479.667 724.117 477.667 724.117 469.267C724.117 465.133 723.583 460.867 722.917 459.8C721.583 457.8 715.583 457 710.783 458.2ZM718.917 463.8C719.717 465.4 719.983 468.6 719.45 471.267C718.783 475 718.117 475.8 715.717 475.4C713.317 475.133 712.65 473.933 712.383 469.8C712.117 467 712.25 463.933 712.65 462.867C713.717 460.067 717.183 460.6 718.917 463.8Z" fill="#067EE6"/>
<path d="M766.517 457.933C764.517 458.467 764.117 460.067 764.117 467.4C764.117 472.333 764.65 477 765.183 477.8C765.983 479 772.383 479.4 778.117 478.467C780.517 478.2 775.583 475.667 772.517 475.667C768.117 475.667 768.383 470.867 772.783 469.8C777.183 468.733 777.05 466.333 772.65 466.333C767.317 466.333 768.917 461.8 774.517 461.267C778.25 460.867 780.65 458.733 777.85 458.2C774.917 457.533 768.517 457.533 766.517 457.933Z" fill="#067EE6"/>
<path d="M791.183 458.467C787.983 459.667 785.45 466.067 785.45 473.133C785.45 479.4 787.583 481 789.717 476.467C791.583 472.2 796.917 471.8 798.117 475.667C799.717 480.6 802.783 478.733 802.783 473C802.783 462.067 797.85 455.933 791.183 458.467ZM796.65 464.467C797.983 468.067 797.583 469 794.117 469C791.717 469 790.783 468.333 790.783 466.6C790.783 462.067 795.183 460.6 796.65 464.467Z" fill="#067EE6"/>
<path d="M834.517 457.933C831.583 458.733 831.45 459.533 834.383 461.667C836.917 463.533 837.05 474.2 834.517 475.8C831.85 477.533 834.917 479.667 840.25 479.667C845.85 479.667 846.783 478.067 843.45 473.8C840.783 470.333 840.917 465.133 843.717 462.067C844.917 460.733 845.583 459.267 845.183 458.867C843.983 457.8 837.183 457.133 834.517 457.933Z" fill="#067EE6"/>
<path d="M855.183 457.933C851.45 458.6 851.183 460.467 854.65 461.667C856.65 462.2 857.317 464.067 857.717 470.333C857.983 474.733 858.65 478.6 859.05 479.133C861.183 481.133 862.783 477.533 862.783 470.867C862.783 464.467 863.183 463.4 866.117 462.067C867.983 461.267 869.45 460.067 869.45 459.533C869.45 457.533 861.717 456.733 855.183 457.933Z" fill="#067EE6"/>
<path d="M250.25 460.467C249.85 461.667 249.45 465.4 249.45 469C249.45 480.6 252.65 483.8 254.25 473.667C254.65 470.333 255.583 467.667 256.117 467.667C257.45 467.667 260.783 471.667 263.05 476.2C264.383 478.733 265.317 479.533 266.117 478.467C267.717 475.8 268.383 461.8 267.05 459.8C265.45 457.4 262.783 459 262.783 462.467C262.783 465.933 261.183 465.667 257.45 461.667C253.85 457.8 251.45 457.4 250.25 460.467Z" fill="#067EE6"/>
<path d="M342.783 466.867C342.783 476.733 344.65 479.667 350.917 479.667C358.783 479.667 360.117 477.933 360.117 467.667C360.117 460.2 359.717 458.333 358.117 458.333C356.65 458.333 356.117 460.067 356.117 465.533C356.117 473 353.85 476.6 350.25 475.267C348.917 474.733 348.117 472.067 347.85 466.733C347.583 460.6 346.917 458.867 345.183 458.6C343.05 458.2 342.783 459.267 342.783 466.867Z" fill="#067EE6"/>
<path d="M431.317 460.2C430.117 463.267 431.45 477.4 432.917 477.933C433.85 478.2 434.783 476.067 435.317 473C436.117 468.067 436.383 467.8 438.783 469.267C440.25 470.2 442.25 472.6 443.183 474.6C445.717 480.467 447.85 479.133 448.383 471.267C448.517 467.533 448.65 463 448.383 461.267C447.85 457.667 444.117 457.267 444.117 460.867C444.117 465 442.117 465.267 438.783 461.667C435.317 457.933 432.383 457.4 431.317 460.2Z" fill="#067EE6"/>
<path d="M582.783 467.533C582.783 480.733 587.45 482.867 587.983 469.8C588.117 467.8 588.517 467.667 590.117 469C591.183 469.933 593.183 470.2 594.383 469.667C597.85 468.333 598.117 468.467 598.783 473.133C599.183 475.533 600.117 477.667 601.05 477.933C602.917 478.6 604.783 465.4 603.45 461.133C602.383 457.4 598.25 457.533 595.717 461.267L593.717 464.333L590.517 461.267C584.517 455.8 582.783 457.133 582.783 467.533Z" fill="#067EE6"/>
<path d="M661.05 459.267C659.717 460.467 659.983 476.067 661.317 478.2C662.783 480.333 663.45 479.133 664.65 472.733L665.583 467.667L668.917 469.933C670.783 471.133 672.917 473.533 673.583 475.267C675.85 481.267 677.45 478.467 677.45 468.333C677.45 458.067 675.85 455.4 673.45 461.8C672.25 464.867 671.85 465.133 669.717 463.533C668.517 462.467 666.917 460.867 666.383 459.933C665.183 458.2 662.383 457.8 661.05 459.267Z" fill="#067EE6"/>
<path d="M739.05 468.6C739.317 476.6 739.85 479 741.45 479C742.517 479 743.717 477.533 744.117 475.667C745.183 471.4 751.183 470.867 751.983 475C752.517 477.933 754.783 479.8 756.383 478.867C757.85 477.933 757.717 471.133 756.25 469.667C755.583 468.867 754.783 466.2 754.517 463.667L754.117 459L746.383 458.6L738.65 458.2L739.05 468.6ZM749.317 462.2C751.85 463.8 750.117 467.667 746.783 467.667C745.05 467.667 744.117 466.733 744.117 465.267C744.117 461.133 745.983 460.067 749.317 462.2Z" fill="#067EE6"/>
<path d="M810.383 460.6C809.183 465.133 809.45 472.733 810.783 476.2C811.983 479.533 812.517 479.8 819.05 479.4L826.117 479L826.517 473.933C827.05 468.067 824.117 467.133 821.583 472.467C819.183 477.8 815.583 476.2 815.05 469.667C814.65 462.2 813.583 458.333 812.117 458.333C811.45 458.333 810.65 459.4 810.383 460.6Z" fill="#067EE6"/>
<path d="M874.783 462.867C874.783 465.4 875.45 467.933 876.25 468.467C877.05 468.867 878.517 471.4 879.583 473.8C881.45 478.2 885.45 480.067 885.45 476.6C885.45 475.667 886.917 473 888.65 470.6C891.717 466.333 892.65 459.667 890.117 458.733C889.317 458.467 888.117 460.2 887.45 462.6C885.583 468.6 881.317 468.6 879.45 462.6C877.85 456.867 874.783 457 874.783 462.867Z" fill="#067EE6"/>
</svg>
